<svg width="512" height="512" viewBox="0 0 512 512" fill="none" xmlns="http://www.w3.org/2000/svg">
<path d="M78 44H277.424C305.201 46.6112 325.99 50.5968 349.656 58.8061C382.477 70.1916 407.685 96.2896 423.558 127.232C436.052 151.589 436.152 180.463 423.827 204.905L423.305 205.942C407.636 237.016 382.064 262.682 349.309 274.33C322.256 283.951 302.115 287.703 277.424 288.5H203.637V469L78 207.5H203.637H250.635C262.452 207.5 274.21 205.828 285.56 202.533L288.785 201.596C300.074 198.319 309.72 190.911 315.81 180.843C321.3 171.766 321.046 160.22 315.282 151.315C309.57 142.49 300.751 135.951 290.631 133.147L286.371 131.966C274.478 128.671 262.195 127 249.856 127H203.637V194L78 44Z" fill="url(#paint0_linear_4605_602)"/>
<defs>
<linearGradient id="paint0_linear_4605_602" x1="260.722" y1="44" x2="260.722" y2="469" gradientUnits="userSpaceOnUse">
<stop stop-color="white"/>
<stop offset="1" stop-color="#A5A5A5"/>
</linearGradient>
</defs>
</svg>
